<svg width="313" height="290" viewBox="0 0 313 290" fill="none" xmlns="http://www.w3.org/2000/svg">
<path d="M258.344 189.744L275.841 189.313C282.384 189.151 287.731 194.499 287.57 201.042V201.042C287.409 207.586 292.756 212.933 299.299 212.771L312 212.458" stroke="#1428D5" stroke-width="7.94949"/>
<path d="M258.344 189.744L275.841 189.313C282.384 189.151 287.731 194.499 287.57 201.042V201.042C287.409 207.586 292.756 212.933 299.299 212.771L312 212.458" stroke="black" stroke-opacity="0.2" stroke-width="7.94949"/>
<rect x="21.9676" y="103.566" width="238.018" height="152.66" rx="76.3298" stroke="#1428D5" stroke-width="6.566"/>
<rect x="21.9676" y="103.566" width="238.018" height="152.66" rx="76.3298" stroke="black" stroke-opacity="0.2" stroke-width="6.566"/>
<rect x="152.469" y="285.995" width="29.4046" height="49.245" rx="4.9245" transform="rotate(-89.9625 152.469 285.995)" stroke="#1428D5" stroke-width="6.566"/>
<rect x="152.469" y="285.995" width="29.4046" height="49.245" rx="4.9245" transform="rotate(-89.9625 152.469 285.995)" stroke="black" stroke-opacity="0.2" stroke-width="6.566"/>
<rect x="80.2427" y="285.525" width="29.752" height="49.245" rx="4.9245" transform="rotate(-89.9625 80.2427 285.525)" stroke="#1428D5" stroke-width="6.566"/>
<rect x="80.2427" y="285.525" width="29.752" height="49.245" rx="4.9245" transform="rotate(-89.9625 80.2427 285.525)" stroke="black" stroke-opacity="0.2" stroke-width="6.566"/>
<path d="M16.842 196.779L16.8337 196.779L16.8254 196.779L8.22957 196.779C5.5047 196.779 3.2978 194.567 3.30509 191.842L3.36883 168.021C3.3761 165.306 5.57911 163.109 8.29392 163.109L19.8701 163.111C22.182 163.111 23.814 165.376 23.0823 167.569C22.7434 168.585 22.5707 169.649 22.5707 170.719L22.5707 180.306L22.5707 189.07C22.5707 190.137 22.7405 191.197 23.0737 192.211C23.8186 194.477 22.1233 196.806 19.738 196.794L16.842 196.779Z" stroke="#1428D5" stroke-width="6.566"/>
<path d="M16.842 196.779L16.8337 196.779L16.8254 196.779L8.22957 196.779C5.5047 196.779 3.2978 194.567 3.30509 191.842L3.36883 168.021C3.3761 165.306 5.57911 163.109 8.29392 163.109L19.8701 163.111C22.182 163.111 23.814 165.376 23.0823 167.569C22.7434 168.585 22.5707 169.649 22.5707 170.719L22.5707 180.306L22.5707 189.07C22.5707 190.137 22.7405 191.197 23.0737 192.211C23.8186 194.477 22.1233 196.806 19.738 196.794L16.842 196.779Z" stroke="black" stroke-opacity="0.2" stroke-width="6.566"/>
<mask id="path-6-inside-1_801_2462" fill="white">
<path d="M89.2688 142.962C89.2688 147.75 87.3664 152.343 83.9801 155.729C80.5939 159.116 76.0012 161.018 71.2123 161.018C66.4234 161.018 61.8306 159.116 58.4444 155.729C55.0581 152.343 53.1558 147.75 53.1558 142.962H60.5615C60.5615 145.786 61.6836 148.495 63.681 150.493C65.6784 152.49 68.3875 153.612 71.2123 153.612C74.037 153.612 76.7461 152.49 78.7435 150.493C80.7409 148.495 81.863 145.786 81.863 142.962H89.2688Z"/>
</mask>
<path d="M89.2688 142.962C89.2688 147.75 87.3664 152.343 83.9801 155.729C80.5939 159.116 76.0012 161.018 71.2123 161.018C66.4234 161.018 61.8306 159.116 58.4444 155.729C55.0581 152.343 53.1558 147.75 53.1558 142.962H60.5615C60.5615 145.786 61.6836 148.495 63.681 150.493C65.6784 152.49 68.3875 153.612 71.2123 153.612C74.037 153.612 76.7461 152.49 78.7435 150.493C80.7409 148.495 81.863 145.786 81.863 142.962H89.2688Z" fill="#1428D5"/>
<path d="M89.2688 142.962C89.2688 147.75 87.3664 152.343 83.9801 155.729C80.5939 159.116 76.0012 161.018 71.2123 161.018C66.4234 161.018 61.8306 159.116 58.4444 155.729C55.0581 152.343 53.1558 147.75 53.1558 142.962H60.5615C60.5615 145.786 61.6836 148.495 63.681 150.493C65.6784 152.49 68.3875 153.612 71.2123 153.612C74.037 153.612 76.7461 152.49 78.7435 150.493C80.7409 148.495 81.863 145.786 81.863 142.962H89.2688Z" fill="black" fill-opacity="0.2"/>
<path d="M89.2688 142.962C89.2688 147.75 87.3664 152.343 83.9801 155.729C80.5939 159.116 76.0012 161.018 71.2123 161.018C66.4234 161.018 61.8306 159.116 58.4444 155.729C55.0581 152.343 53.1558 147.75 53.1558 142.962H60.5615C60.5615 145.786 61.6836 148.495 63.681 150.493C65.6784 152.49 68.3875 153.612 71.2123 153.612C74.037 153.612 76.7461 152.49 78.7435 150.493C80.7409 148.495 81.863 145.786 81.863 142.962H89.2688Z" stroke="#1428D5" stroke-width="0.72226" mask="url(#path-6-inside-1_801_2462)"/>
<path d="M89.2688 142.962C89.2688 147.75 87.3664 152.343 83.9801 155.729C80.5939 159.116 76.0012 161.018 71.2123 161.018C66.4234 161.018 61.8306 159.116 58.4444 155.729C55.0581 152.343 53.1558 147.75 53.1558 142.962H60.5615C60.5615 145.786 61.6836 148.495 63.681 150.493C65.6784 152.49 68.3875 153.612 71.2123 153.612C74.037 153.612 76.7461 152.49 78.7435 150.493C80.7409 148.495 81.863 145.786 81.863 142.962H89.2688Z" stroke="black" stroke-opacity="0.2" stroke-width="0.72226" mask="url(#path-6-inside-1_801_2462)"/>
<path d="M55.3924 114.98L60.892 111.376C73.9781 102.802 75.0409 84.0142 63.0053 74.0186V74.0186" stroke="#1428D5" stroke-width="6.566"/>
<path d="M55.3924 114.98L60.892 111.376C73.9781 102.802 75.0409 84.0142 63.0053 74.0186V74.0186" stroke="black" stroke-opacity="0.2" stroke-width="6.566"/>
<line x1="124.561" y1="121.622" x2="186.118" y2="121.622" stroke="#1428D5" stroke-width="6.566" stroke-linecap="round"/>
<line x1="124.561" y1="121.622" x2="186.118" y2="121.622" stroke="black" stroke-opacity="0.2" stroke-width="6.566" stroke-linecap="round"/>
<path d="M61.3633 73.6082V73.6082C79.7821 77.0784 96.6624 86.2001 109.658 99.7056L110.608 100.693" stroke="#1428D5" stroke-width="6.566"/>
<path d="M61.3633 73.6082V73.6082C79.7821 77.0784 96.6624 86.2001 109.658 99.7056L110.608 100.693" stroke="black" stroke-opacity="0.2" stroke-width="6.566"/>
<path d="M155.75 35.498C153.937 35.498 152.467 33.8322 152.467 31.7773C152.467 29.7224 153.937 28.0565 155.75 28.0565C157.563 28.0565 159.033 29.7224 159.033 31.7773C159.033 33.8322 157.563 35.498 155.75 35.498Z" stroke="#FFE600" stroke-width="56.0302" stroke-miterlimit="10"/>
<path d="M155.75 35.498C153.937 35.498 152.467 33.8322 152.467 31.7773C152.467 29.7224 153.937 28.0565 155.75 28.0565C157.563 28.0565 159.033 29.7224 159.033 31.7773C159.033 33.8322 157.563 35.498 155.75 35.498Z" stroke="black" stroke-opacity="0.2" stroke-width="56.0302" stroke-miterlimit="10"/>
<path d="M163.136 18.7L162.116 17.5737C158.501 13.582 152.185 13.7305 148.762 17.8877L148.56 18.1327C143.899 23.7928 147.925 32.3244 155.257 32.3244V32.3244V32.3244C162.776 32.3244 166.956 41.1657 162.028 46.8451V46.8451C158.481 50.9334 152.114 50.8652 148.655 46.7018L146.393 43.9791" stroke="#FFE600" stroke-width="3.69338"/>
<path d="M163.136 18.7L162.116 17.5737C158.501 13.582 152.185 13.7305 148.762 17.8877L148.56 18.1327C143.899 23.7928 147.925 32.3244 155.257 32.3244V32.3244V32.3244C162.776 32.3244 166.956 41.1657 162.028 46.8451V46.8451C158.481 50.9334 152.114 50.8652 148.655 46.7018L146.393 43.9791" stroke="black" stroke-opacity="0.2" stroke-width="3.69338"/>
<path d="M155.257 11.8057V14.7604" stroke="#FFE600" stroke-width="2.6264" stroke-linecap="round"/>
<path d="M155.257 11.8057V14.7604" stroke="black" stroke-opacity="0.2" stroke-width="2.6264" stroke-linecap="round"/>
<line x1="156.571" y1="51.0375" x2="156.571" y2="51.6941" stroke="#FFE600" stroke-width="2.6264" stroke-linecap="round"/>
<line x1="156.571" y1="51.0375" x2="156.571" y2="51.6941" stroke="black" stroke-opacity="0.2" stroke-width="2.6264" stroke-linecap="round"/>
</svg>
