<svg width="40" height="40" viewBox="0 0 61 61" fill="none" xmlns="http://www.w3.org/2000/svg">
<path d="M38.2133 19.0622C37.8833 23.5133 34.5089 27.1444 30.8046 27.1444C27.1003 27.1444 23.7201 23.5142 23.3959 19.0622C23.0592 14.4318 26.3426 10.98 30.8046 10.98C35.2667 10.98 38.55 14.516 38.2133 19.0622Z" stroke="white" stroke-width="2.69406" stroke-linecap="round" stroke-linejoin="round"/>
<path d="M30.8047 32.5326C23.4802 32.5326 16.0463 36.5737 14.6706 44.2012C14.5048 45.1206 15.0251 46.0029 15.9874 46.0029H45.6221C46.5852 46.0029 47.1055 45.1206 46.9396 44.2012C45.5631 36.5737 38.1292 32.5326 30.8047 32.5326Z" stroke="white" stroke-width="2.69406" stroke-miterlimit="10"/>
<path d="M61 30.5C61 47.3447 47.3447 61 30.5 61C13.6553 61 0 47.3447 0 30.5C0 13.6553 13.6553 0 30.5 0C47.3447 0 61 13.6553 61 30.5ZM4.10638 30.5C4.10638 45.0768 15.9232 56.8936 30.5 56.8936C45.0768 56.8936 56.8936 45.0768 56.8936 30.5C56.8936 15.9232 45.0768 4.10638 30.5 4.10638C15.9232 4.10638 4.10638 15.9232 4.10638 30.5Z" fill="white"/>
</svg>
